# xmcd
#
# Track frame offsets:
#	150
#	16967
#	35379
#	53706
#	70633
#	87450
#	106442
#	125599
#	145396
#	160848
#	178090
#	200667
#	219664
#	238961
#	261073
#	277515
#	301152
#	316754
#
# Disc length: 4488 seconds
#
# Revision: 0
# Processed by: cddbd v1.5.2PL0 Copyright (c) Steve Scherf et al.
# Submitted via: EasyCDDAExtractor 2010.4.0.0
#
DISCID=fc118612
DTITLE=Various Artist - 2010 Steppers Connection Vol. 2
DYEAR=1900
DGENRE=R&B
TTITLE0=Damo - People Make The World Go Round
TTITLE1=Maysa - Honey Bee
TTITLE2=Maysa - Spend Some Time
TTITLE3=Jaheim - Finding My Way Back
TTITLE4=Jaheim - Clever
TTITLE5=Adriana Evans - Waiting
TTITLE6=Adriana Evans - Suddenly
TTITLE7=Sade - The Moon and The Sky
TTITLE8=D.J. Markey G - Steppers Sex (BLT rmx)
TTITLE9=Carol Duboc - No Ordinary Love
TTITLE10=Espirito - One Way Street
TTITLE11=50 Cent - Do You Thiink About Me
TTITLE12=Jay Z - On 2 The Best One
TTITLE13=Najee - L.A. Smooth
TTITLE14=T.I. Williams - Get On Down
TTITLE15=Kim Waters - One More
TTITLE16=Terisa Griffin - Alright
TTITLE17=K. Jon - Grown Folks
EXTD=
EXTT0=
EXTT1=
EXTT2=
EXTT3=
EXTT4=
EXTT5=
EXTT6=
EXTT7=
EXTT8=
EXTT9=
EXTT10=
EXTT11=
EXTT12=
EXTT13=
EXTT14=
EXTT15=
EXTT16=
EXTT17=
PLAYORDER=
